<svg width="18.000000" height="18.000000" viewBox="0 0 18 18" fill="none" xmlns="http://www.w3.org/2000/svg" xmlns:xlink="http://www.w3.org/1999/xlink">
	<desc>
			Created with Pixso.
	</desc>
	<defs>
		<clipPath id="clip2_548">
			<rect id="notepad-fill" width="18.000000" height="18.000000" fill="white" fill-opacity="0"/>
		</clipPath>
	</defs>
	<rect id="notepad-fill" width="18.000000" height="18.000000" fill="#FFFFFF" fill-opacity="0"/>
	<g clip-path="url(#clip2_548)">
		<path id="Vector" d="M15.36 1.33L13.45 1.33L13.45 0.66C13.45 0.48 13.38 0.32 13.26 0.19C13.14 0.07 12.98 0 12.81 0C12.64 0 12.48 0.07 12.36 0.19C12.24 0.32 12.18 0.48 12.18 0.66L12.18 1.33L9.63 1.33L9.63 0.66C9.63 0.48 9.56 0.32 9.44 0.19C9.33 0.07 9.16 0 9 0C8.83 0 8.66 0.07 8.55 0.19C8.43 0.32 8.36 0.48 8.36 0.66L8.36 1.33L5.81 1.33L5.81 0.66C5.81 0.48 5.75 0.32 5.63 0.19C5.51 0.07 5.35 0 5.18 0C5.01 0 4.85 0.07 4.73 0.19C4.61 0.32 4.54 0.48 4.54 0.66L4.54 1.33L2.63 1.33C2.46 1.33 2.3 1.4 2.18 1.52C2.06 1.65 2 1.82 2 2L2 15.33C2 16.04 2.26 16.71 2.74 17.21C3.22 17.71 3.87 18 4.54 18L13.45 18C14.12 18 14.77 17.71 15.25 17.21C15.73 16.71 16 16.04 16 15.33L16 2C16 1.82 15.93 1.65 15.81 1.52C15.69 1.4 15.53 1.33 15.36 1.33ZM8.36 3.33C8.36 3.15 8.43 2.98 8.55 2.86C8.66 2.73 8.83 2.66 9 2.66C9.16 2.66 9.33 2.73 9.44 2.86C9.56 2.98 9.63 3.15 9.63 3.33L9.63 4C9.63 4.17 9.56 4.34 9.44 4.47C9.33 4.59 9.16 4.66 9 4.66C8.83 4.66 8.66 4.59 8.55 4.47C8.43 4.34 8.36 4.17 8.36 4L8.36 3.33ZM5.18 4.66C5.01 4.66 4.85 4.59 4.73 4.47C4.61 4.34 4.54 4.17 4.54 4L4.54 3.33C4.54 3.15 4.61 2.98 4.73 2.86C4.85 2.73 5.01 2.66 5.18 2.66C5.35 2.66 5.51 2.73 5.63 2.86C5.75 2.98 5.81 3.15 5.81 3.33L5.81 4C5.81 4.17 5.75 4.34 5.63 4.47C5.51 4.59 5.35 4.66 5.18 4.66ZM11.54 12.66L6.45 12.66C6.28 12.66 6.12 12.59 6 12.47C5.88 12.34 5.81 12.17 5.81 12C5.81 11.82 5.88 11.65 6 11.52C6.12 11.4 6.28 11.33 6.45 11.33L11.54 11.33C11.71 11.33 11.87 11.4 11.99 11.52C12.11 11.65 12.18 11.82 12.18 12C12.18 12.17 12.11 12.34 11.99 12.47C11.87 12.59 11.71 12.66 11.54 12.66ZM11.54 10L6.45 10C6.28 10 6.12 9.92 6 9.8C5.88 9.67 5.81 9.51 5.81 9.33C5.81 9.15 5.88 8.98 6 8.86C6.12 8.73 6.28 8.66 6.45 8.66L11.54 8.66C11.71 8.66 11.87 8.73 11.99 8.86C12.11 8.98 12.18 9.15 12.18 9.33C12.18 9.51 12.11 9.67 11.99 9.8C11.87 9.92 11.71 10 11.54 10ZM13.45 4C13.45 4.17 13.38 4.34 13.26 4.47C13.14 4.59 12.98 4.66 12.81 4.66C12.64 4.66 12.48 4.59 12.36 4.47C12.24 4.34 12.18 4.17 12.18 4L12.18 3.33C12.18 3.15 12.24 2.98 12.36 2.86C12.48 2.73 12.64 2.66 12.81 2.66C12.98 2.66 13.14 2.73 13.26 2.86C13.38 2.98 13.45 3.15 13.45 3.33L13.45 4Z" fill="#8F959E" fill-opacity="1.000000" fill-rule="nonzero"/>
	</g>
</svg>
