<svg width="16.000000" height="16.000000" viewBox="0 0 16 16" fill="none" xmlns="http://www.w3.org/2000/svg" xmlns:xlink="http://www.w3.org/1999/xlink">
	<desc>
			Created with Pixso.
	</desc>
	<defs>
		<clipPath id="clip100_2750">
			<rect id="task" width="16.000000" height="16.000000" fill="white" fill-opacity="0"/>
		</clipPath>
	</defs>
	<rect id="task" width="16.000000" height="16.000000" fill="#FFFFFF" fill-opacity="0"/>
	<g clip-path="url(#clip100_2750)">
		<path id="Vector" d="M4.54 11.87C3.82 12.71 3.44 13.71 3.42 14.85L0 14.85C0.03 12.77 0.74 10.97 2.12 9.44C2.93 10.25 3.73 11.05 4.54 11.87Z" fill="#8F959E" fill-opacity="1.000000" fill-rule="nonzero"/>
		<path id="Vector" d="M7.7 6.87C7.7 6.95 7.71 7 7.71 7.06C7.71 8.08 7.71 9.11 7.71 10.13C7.71 10.26 7.68 10.31 7.54 10.32C6.67 10.41 5.89 10.72 5.2 11.26C5.13 11.31 5.06 11.37 5.01 11.41C4.2 10.6 3.4 9.8 2.58 8.99C4.01 7.68 5.71 6.98 7.7 6.87L7.7 6.87Z" fill="#8F959E" fill-opacity="1.000000" fill-rule="nonzero"/>
		<path id="Vector" d="M13.43 9C12.61 9.81 11.81 10.61 11 11.42C10.91 11.34 10.81 11.26 10.7 11.18C10.02 10.68 9.26 10.39 8.42 10.31C8.33 10.31 8.28 10.29 8.28 10.19C8.28 9.11 8.28 8.03 8.28 6.95C8.28 6.93 8.29 6.91 8.3 6.88C10.27 6.97 11.97 7.68 13.43 9L13.43 9Z" fill="#8F959E" fill-opacity="1.000000" fill-rule="nonzero"/>
		<path id="Vector" d="M12.58 14.84C12.55 14.56 12.51 14.28 12.49 14C12.48 13.95 12.55 13.89 12.6 13.86C13.17 13.52 13.74 13.18 14.31 12.84C14.53 12.71 14.66 12.53 14.63 12.27C14.6 11.89 14.25 11.66 13.89 11.78C13.27 11.99 12.66 12.2 12.06 12.42C11.93 12.46 11.86 12.45 11.79 12.33C11.69 12.16 11.56 12 11.45 11.85C12.25 11.05 13.05 10.25 13.86 9.45C15.02 10.42 16.14 13.23 15.98 14.84L12.58 14.84L12.58 14.84Z" fill="#8F959E" fill-opacity="1.000000" fill-rule="nonzero"/>
		<path id="Vector" d="M9.06 3.45C8.99 3.42 8.94 3.41 8.89 3.38C8.66 3.27 8.43 3.15 8.21 3.03C8.06 2.95 7.93 2.94 7.79 3.02C7.56 3.15 7.33 3.26 7.1 3.38C7.06 3.4 7.01 3.42 6.91 3.47C6.94 3.22 6.97 3.01 7 2.8C7.09 2.13 7.15 2.3 6.7 1.82C6.59 1.7 6.48 1.59 6.38 1.47C6.34 1.43 6.32 1.37 6.29 1.32C6.34 1.3 6.39 1.27 6.44 1.26C6.7 1.22 6.96 1.17 7.22 1.13C7.37 1.11 7.47 1.04 7.53 0.9C7.65 0.65 7.78 0.41 7.9 0.16C7.92 0.12 7.95 0.07 8 0C8.06 0.11 8.1 0.19 8.15 0.28C8.25 0.49 8.36 0.7 8.46 0.91C8.52 1.04 8.62 1.11 8.77 1.13C9.03 1.17 9.29 1.22 9.56 1.26C9.61 1.27 9.65 1.29 9.73 1.31C9.68 1.38 9.66 1.43 9.62 1.47C9.44 1.66 9.27 1.86 9.08 2.04C8.94 2.17 8.91 2.31 8.94 2.49C8.99 2.75 9.02 3.01 9.06 3.27C9.07 3.32 9.06 3.37 9.06 3.45L9.06 3.45Z" fill="#8F959E" fill-opacity="1.000000" fill-rule="nonzero"/>
		<path id="Vector" d="M12.06 5.76C12.07 5.64 12.07 5.56 12.08 5.49C12.12 5.23 12.15 4.97 12.2 4.71C12.22 4.57 12.19 4.46 12.09 4.36C11.89 4.15 11.69 3.94 11.49 3.73C11.39 3.62 11.4 3.58 11.55 3.56C11.82 3.5 12.1 3.45 12.37 3.41C12.52 3.39 12.61 3.31 12.68 3.18C12.79 2.93 12.92 2.69 13.04 2.45C13.06 2.4 13.09 2.35 13.13 2.28C13.18 2.35 13.21 2.39 13.23 2.44C13.36 2.69 13.48 2.94 13.6 3.19C13.66 3.31 13.75 3.39 13.89 3.41C14.17 3.45 14.44 3.5 14.72 3.55C14.88 3.58 14.89 3.62 14.77 3.74C14.58 3.95 14.39 4.15 14.19 4.36C14.09 4.46 14.05 4.56 14.08 4.7C14.12 4.99 14.16 5.28 14.2 5.56C14.2 5.61 14.2 5.66 14.2 5.75C13.92 5.6 13.66 5.48 13.42 5.34C13.23 5.23 13.06 5.22 12.86 5.34C12.62 5.48 12.36 5.6 12.06 5.76L12.06 5.76Z" fill="#8F959E" fill-opacity="1.000000" fill-rule="nonzero"/>
		<path id="Vector" d="M2.86 2.28C2.91 2.38 2.96 2.46 3 2.54C3.07 2.68 3.15 2.82 3.21 2.97C3.32 3.28 3.51 3.44 3.85 3.45C4.05 3.46 4.24 3.51 4.44 3.55C4.59 3.58 4.6 3.62 4.5 3.73C4.3 3.94 4.11 4.15 3.91 4.35C3.8 4.46 3.77 4.58 3.8 4.73C3.85 5.01 3.88 5.3 3.92 5.59C3.92 5.63 3.92 5.67 3.92 5.75C3.71 5.64 3.54 5.55 3.36 5.46C2.76 5.16 2.94 5.16 2.35 5.46C2.17 5.55 2 5.64 1.77 5.76C1.79 5.61 1.8 5.5 1.81 5.4C1.84 5.17 1.87 4.93 1.91 4.7C1.94 4.56 1.9 4.46 1.8 4.36C1.6 4.15 1.41 3.95 1.22 3.74C1.1 3.62 1.11 3.58 1.27 3.55C1.55 3.5 1.82 3.45 2.1 3.41C2.24 3.39 2.33 3.32 2.39 3.19C2.51 2.94 2.63 2.69 2.76 2.44C2.78 2.4 2.81 2.35 2.86 2.28L2.86 2.28Z" fill="#8F959E" fill-opacity="1.000000" fill-rule="nonzero"/>
		<path id="Vector" d="M9.44 15.03C9.38 14.85 9.35 14.68 9.28 14.53C9.21 14.39 9.11 14.26 9.01 14.1C10.64 13.52 12.26 12.95 13.88 12.37C13.89 12.39 13.9 12.41 13.91 12.42C12.42 13.3 10.93 14.17 9.44 15.03L9.44 15.03Z" fill="#8F959E" fill-opacity="1.000000" fill-rule="nonzero"/>
		<path id="Vector" d="M8 14.29C8.47 14.29 8.85 14.67 8.85 15.14C8.85 15.61 8.46 16 7.99 16C7.52 15.99 7.14 15.61 7.14 15.14C7.13 14.67 7.52 14.29 8 14.29L8 14.29Z" fill="#8F959E" fill-opacity="1.000000" fill-rule="nonzero"/>
	</g>
</svg>
