<svg width="18.000000" height="18.000000" viewBox="0 0 18 18" fill="none" xmlns="http://www.w3.org/2000/svg" xmlns:xlink="http://www.w3.org/1999/xlink">
	<desc>
			Created with Pixso.
	</desc>
	<defs/>
	<rect id="SignOut" width="18.000000" height="18.000000" fill="#FFFFFF" fill-opacity="0"/>
	<path id="Vector" d="M7.49 16.79C7.49 16.97 7.42 17.15 7.28 17.29C7.13 17.42 6.94 17.5 6.74 17.5L1.5 17.5C1.1 17.5 0.72 17.35 0.43 17.08C0.15 16.81 0 16.45 0 16.08L0 1.91C0 1.54 0.15 1.18 0.43 0.91C0.72 0.64 1.1 0.5 1.5 0.5L6.74 0.5C6.94 0.5 7.13 0.57 7.28 0.7C7.42 0.84 7.49 1.02 7.49 1.2C7.49 1.39 7.42 1.57 7.28 1.7C7.13 1.84 6.94 1.91 6.74 1.91L1.5 1.91L1.5 16.08L6.74 16.08C6.94 16.08 7.13 16.15 7.28 16.29C7.42 16.42 7.49 16.6 7.49 16.79ZM17.78 8.49L14.03 4.95C13.88 4.82 13.69 4.74 13.49 4.74C13.3 4.74 13.1 4.82 12.96 4.95C12.82 5.09 12.74 5.27 12.74 5.45C12.74 5.64 12.82 5.82 12.96 5.95L15.43 8.29L6.74 8.29C6.55 8.29 6.36 8.36 6.21 8.49C6.07 8.63 5.99 8.81 5.99 9C5.99 9.18 6.07 9.36 6.21 9.5C6.36 9.63 6.55 9.7 6.74 9.7L15.43 9.7L12.96 12.04C12.82 12.17 12.74 12.35 12.74 12.54C12.74 12.72 12.82 12.9 12.96 13.04C13.1 13.17 13.3 13.25 13.49 13.25C13.69 13.25 13.88 13.17 14.03 13.04L17.78 9.5C17.84 9.43 17.9 9.35 17.94 9.27C17.98 9.18 18 9.09 18 9C18 8.9 17.98 8.81 17.94 8.72C17.9 8.64 17.84 8.56 17.78 8.49Z" fill="#EF5350" fill-opacity="1.000000" fill-rule="nonzero"/>
</svg>
