<svg width="14.000000" height="16.000000" viewBox="0 0 14 16" fill="none" xmlns="http://www.w3.org/2000/svg" xmlns:xlink="http://www.w3.org/1999/xlink">
	<desc>
			Created with Pixso.
	</desc>
	<defs>
		<clipPath id="clip100_2844">
			<rect id="checklist" width="14.000000" height="16.000000" fill="white" fill-opacity="0"/>
		</clipPath>
	</defs>
	<rect id="checklist" width="14.000000" height="16.000000" fill="#FFFFFF" fill-opacity="0"/>
	<g clip-path="url(#clip100_2844)">
		<path id="Vector" d="M2.5 1.06C2.5 0.88 2.5 0.73 2.5 0.57C2.5 0.23 2.71 -0.01 3 0C3.29 0 3.49 0.24 3.5 0.58C3.5 0.73 3.5 0.89 3.5 1.05L6.5 1.05C6.5 0.88 6.49 0.71 6.5 0.55C6.5 0.23 6.72 -0.01 7 0C7.28 0 7.49 0.23 7.49 0.55C7.5 0.71 7.5 0.88 7.5 1.05L10.49 1.05C10.49 0.98 10.49 0.9 10.49 0.83C10.49 0.25 10.64 0 10.99 0C11.34 -0.01 11.49 0.25 11.49 0.84C11.49 0.9 11.49 0.97 11.49 1.06C11.7 1.06 11.9 1.06 12.1 1.06C12.67 1.07 13.15 1.3 13.52 1.75C13.83 2.12 13.99 2.56 13.99 3.06C14 6.7 14 10.35 13.99 13.99C13.99 15.09 13.15 15.99 12.12 15.99C8.7 16 5.29 16 1.87 15.99C0.84 15.99 0 15.09 0 13.99C-0.01 10.35 -0.01 6.7 0 3.06C0 1.97 0.85 1.07 1.87 1.06C2.07 1.06 2.28 1.06 2.5 1.06L2.5 1.06ZM9.23 6.93C9.81 6.93 10.38 6.93 10.95 6.93C11.27 6.93 11.5 6.7 11.49 6.39C11.49 6.08 11.27 5.86 10.95 5.86C9.82 5.86 8.68 5.86 7.55 5.86C7.22 5.86 7 6.08 7 6.39C6.99 6.7 7.22 6.93 7.55 6.93C8.11 6.93 8.67 6.93 9.24 6.93L9.23 6.93ZM9.24 11.73C9.81 11.73 10.38 11.73 10.95 11.73C11.27 11.73 11.49 11.51 11.49 11.2C11.5 10.88 11.27 10.66 10.94 10.66C9.81 10.66 8.68 10.66 7.55 10.66C7.22 10.66 6.99 10.88 7 11.2C7 11.51 7.23 11.73 7.56 11.73C8.12 11.73 8.68 11.73 9.24 11.73L9.24 11.73ZM3.99 6.18C3.77 5.94 3.56 5.71 3.35 5.49C3.14 5.27 2.83 5.27 2.64 5.48C2.44 5.69 2.44 6.02 2.65 6.24C2.97 6.6 3.3 6.95 3.64 7.3C3.85 7.52 4.14 7.52 4.35 7.3C4.5 7.15 4.65 6.99 4.79 6.83C5.14 6.46 5.49 6.09 5.83 5.72C5.98 5.56 6.03 5.37 5.96 5.16C5.89 4.96 5.75 4.84 5.56 4.81C5.38 4.78 5.23 4.85 5.11 4.99C4.74 5.38 4.37 5.77 3.99 6.18L3.99 6.18ZM3.99 10.98C3.77 10.74 3.56 10.51 3.35 10.29C3.14 10.07 2.83 10.07 2.64 10.28C2.44 10.49 2.44 10.81 2.65 11.04C2.97 11.39 3.3 11.75 3.64 12.1C3.85 12.32 4.14 12.32 4.35 12.1C4.5 11.95 4.65 11.79 4.79 11.63C5.14 11.26 5.49 10.89 5.83 10.52C5.98 10.36 6.03 10.17 5.96 9.96C5.89 9.76 5.75 9.64 5.56 9.61C5.38 9.58 5.23 9.65 5.11 9.79C4.74 10.18 4.37 10.57 3.99 10.98L3.99 10.98Z" fill="#3987FD" fill-opacity="1.000000" fill-rule="nonzero"/>
	</g>
</svg>
