<svg width="16.000000" height="16.000000" viewBox="0 0 16 16" fill="none" xmlns="http://www.w3.org/2000/svg" xmlns:xlink="http://www.w3.org/1999/xlink">
	<desc>
			Created with Pixso.
	</desc>
	<defs>
		<clipPath id="clip100_2734">
			<rect id="help" width="16.000000" height="16.000000" fill="white" fill-opacity="0"/>
		</clipPath>
	</defs>
	<rect id="help" width="16.000000" height="16.000000" fill="#FFFFFF" fill-opacity="0"/>
	<g clip-path="url(#clip100_2734)">
		<path id="Vector" d="M10.43 16C10.1 15.93 9.76 15.89 9.44 15.8C8.04 15.4 6.99 14.56 6.28 13.29C6.26 13.25 6.24 13.21 6.22 13.16C9.89 13.16 13.14 9.99 13.16 6.21C13.54 6.4 13.88 6.63 14.19 6.9C15.22 7.81 15.82 8.94 15.97 10.31C15.97 10.35 15.99 10.39 16 10.43C16 10.69 16 10.95 16 11.21C15.99 11.25 15.97 11.28 15.97 11.32C15.9 12.05 15.68 12.73 15.33 13.37C15.3 13.43 15.3 13.52 15.32 13.59C15.51 14.32 15.72 15.05 15.92 15.78C15.94 15.84 15.95 15.89 15.97 15.96C15.92 15.96 15.9 15.95 15.88 15.95C15.14 15.74 14.39 15.54 13.65 15.33C13.51 15.29 13.41 15.31 13.28 15.36C12.88 15.54 12.47 15.7 12.05 15.84C11.78 15.92 11.49 15.94 11.21 15.99C10.95 16 10.69 16 10.43 16Z" fill="#3987FD" fill-opacity="1.000000" fill-rule="nonzero"/>
		<path id="Vector" d="M5.68 0C5.96 0 6.25 0 6.53 0C6.57 0 6.61 0.02 6.65 0.02C6.95 0.07 7.26 0.1 7.55 0.17C11.32 1.1 13.28 5.22 11.62 8.73C10.12 11.91 6.18 13.16 3.13 11.44C3.03 11.38 2.95 11.38 2.85 11.41C1.97 11.65 1.09 11.9 0.21 12.14C0.15 12.16 0.09 12.17 0.02 12.18C0.28 11.23 0.54 10.29 0.8 9.36C0.83 9.25 0.82 9.17 0.77 9.07C0.48 8.56 0.27 8.02 0.15 7.45C0.09 7.14 0.05 6.83 0 6.53C0 6.25 0 5.96 0 5.68C0.03 5.47 0.05 5.26 0.09 5.05C0.47 2.68 2.38 0.66 4.73 0.15C5.05 0.09 5.37 0.05 5.68 0ZM6.57 7.52C6.57 7.31 6.56 7.12 6.58 6.93C6.58 6.85 6.62 6.76 6.67 6.71C6.9 6.49 7.15 6.27 7.39 6.05C8.1 5.36 8.18 4.28 7.57 3.51C6.96 2.75 5.89 2.58 5.07 3.13C4.53 3.49 4.25 4.01 4.23 4.67C4.55 4.67 4.85 4.67 5.16 4.67C5.17 4.62 5.17 4.58 5.18 4.54C5.24 4.11 5.62 3.77 6.05 3.75C6.44 3.73 6.8 3.95 6.96 4.29C7.12 4.65 7.05 5.07 6.76 5.35C6.43 5.67 6.08 5.97 5.74 6.29C5.7 6.33 5.64 6.39 5.64 6.44C5.63 6.79 5.64 7.15 5.64 7.52C5.95 7.52 6.25 7.52 6.57 7.52ZM5.65 8.47C5.65 8.78 5.65 9.09 5.65 9.39C5.96 9.39 6.26 9.39 6.56 9.39C6.56 9.08 6.56 8.78 6.56 8.47C6.25 8.47 5.95 8.47 5.65 8.47Z" fill="#3987FD" fill-opacity="1.000000" fill-rule="nonzero"/>
		<path id="Vector" d="M6.57 7.52C6.25 7.52 5.95 7.52 5.64 7.52C5.64 7.15 5.63 6.79 5.64 6.44C5.64 6.39 5.7 6.33 5.74 6.29C6.08 5.97 6.43 5.67 6.76 5.35C7.05 5.07 7.12 4.65 6.96 4.29C6.8 3.94 6.44 3.73 6.05 3.75C5.61 3.77 5.24 4.11 5.18 4.54C5.17 4.58 5.17 4.62 5.16 4.67C4.85 4.67 4.55 4.67 4.23 4.67C4.25 4.01 4.53 3.49 5.07 3.13C5.88 2.58 6.96 2.75 7.56 3.51C8.18 4.28 8.1 5.36 7.39 6.05C7.15 6.27 6.9 6.49 6.67 6.71C6.62 6.76 6.58 6.85 6.58 6.93C6.56 7.12 6.57 7.31 6.57 7.52Z" fill="#FFFFFF" fill-opacity="1.000000" fill-rule="nonzero"/>
		<path id="Vector" d="M5.65 8.47C5.95 8.47 6.25 8.47 6.56 8.47C6.56 8.78 6.56 9.08 6.56 9.39C6.26 9.39 5.96 9.39 5.65 9.39C5.65 9.09 5.65 8.79 5.65 8.47Z" fill="#FFFFFF" fill-opacity="1.000000" fill-rule="nonzero"/>
	</g>
</svg>
