<svg width="24.000000" height="24.000000" viewBox="0 0 24 24" fill="none" xmlns="http://www.w3.org/2000/svg" xmlns:xlink="http://www.w3.org/1999/xlink">
	<desc>
			Created with Pixso.
	</desc>
	<defs/>
	<path id="Vector" d="M0 12C-0.01 5.38 5.37 0 11.99 0C18.61 -0.01 23.99 5.36 24 11.99C24 18.61 18.62 23.99 12 24C5.38 24 0 18.62 0 12ZM13.33 8.53C13.33 7.71 13.33 6.89 13.33 6.07C13.32 5.26 12.75 4.66 12 4.66C11.24 4.66 10.67 5.25 10.66 6.06C10.66 8.02 10.66 9.98 10.66 11.93C10.66 12.38 10.82 12.75 11.16 13.03C12.27 13.93 13.37 14.84 14.52 15.69C14.79 15.89 15.22 15.98 15.56 15.95C16.1 15.91 16.46 15.54 16.61 15.01C16.76 14.46 16.6 13.99 16.16 13.63C15.33 12.94 14.48 12.26 13.63 11.6C13.39 11.42 13.31 11.23 13.32 10.94C13.34 10.14 13.33 9.33 13.33 8.53Z" fill="#8F959E" fill-opacity="1.000000" fill-rule="nonzero"/>
	<path id="Vector" d="M13.33 8.53C13.33 9.33 13.34 10.14 13.32 10.94C13.32 11.23 13.4 11.42 13.63 11.6C14.49 12.26 15.33 12.94 16.17 13.63C16.6 13.99 16.76 14.46 16.61 15.01C16.46 15.54 16.1 15.91 15.56 15.95C15.22 15.98 14.79 15.89 14.52 15.69C13.37 14.84 12.27 13.93 11.16 13.03C10.82 12.75 10.66 12.38 10.66 11.93C10.66 9.98 10.66 8.02 10.67 6.06C10.67 5.25 11.24 4.66 12 4.66C12.75 4.66 13.32 5.26 13.33 6.07C13.33 6.89 13.33 7.71 13.33 8.53Z" fill="#FFFFFF" fill-opacity="1.000000" fill-rule="nonzero"/>
</svg>
