<svg width="24.000000" height="31.000000" viewBox="0 0 24 31" fill="none" xmlns="http://www.w3.org/2000/svg" xmlns:xlink="http://www.w3.org/1999/xlink">
	<desc>
			Created with Pixso.
	</desc>
	<defs>
		<clipPath id="clip110_1017">
			<rect id="taiming" width="24.000000" height="31.863840" transform="translate(0.000000 -0.931885)" fill="white" fill-opacity="0"/>
		</clipPath>
	</defs>
	<g clip-path="url(#clip110_1017)">
		<path id="Vector" d="M0 11.07C-0.01 4.45 5.37 -0.93 11.99 -0.94C18.61 -0.94 23.99 4.43 24 11.06C24 17.68 18.62 23.06 12 23.06C5.38 23.07 0 17.69 0 11.07ZM13.33 7.59C13.33 6.77 13.33 5.96 13.33 5.14C13.32 4.33 12.75 3.73 12 3.73C11.24 3.73 10.67 4.32 10.66 5.13C10.66 7.09 10.66 9.05 10.66 11C10.66 11.45 10.82 11.82 11.16 12.1C12.27 13 13.37 13.91 14.52 14.76C14.79 14.96 15.22 15.04 15.56 15.02C16.1 14.98 16.46 14.61 16.61 14.08C16.76 13.53 16.6 13.05 16.16 12.7C15.33 12.01 14.48 11.33 13.63 10.67C13.39 10.49 13.31 10.3 13.32 10.01C13.34 9.2 13.33 8.4 13.33 7.59Z" fill="#8F959E" fill-opacity="1.000000" fill-rule="nonzero"/>
		<path id="Vector" d="M13.33 7.59C13.33 8.4 13.34 9.2 13.32 10.01C13.32 10.3 13.4 10.49 13.63 10.67C14.49 11.33 15.33 12.01 16.17 12.7C16.6 13.05 16.76 13.53 16.61 14.08C16.46 14.61 16.1 14.98 15.56 15.02C15.22 15.05 14.79 14.96 14.52 14.76C13.37 13.91 12.27 13 11.16 12.1C10.82 11.82 10.66 11.45 10.66 11C10.66 9.05 10.66 7.09 10.67 5.13C10.67 4.32 11.24 3.73 12 3.73C12.75 3.73 13.32 4.33 13.33 5.14C13.33 5.96 13.33 6.77 13.33 7.59Z" fill="#FFFFFF" fill-opacity="1.000000" fill-rule="nonzero"/>
		<path id="Vector" d="M11.98 24.07C14.83 24.07 17.68 24.06 20.53 24.07C22.46 24.07 23.98 25.64 23.95 27.57C23.92 29.38 22.42 30.9 20.61 30.92C19.16 30.93 17.71 30.92 16.26 30.92C11.99 30.92 7.72 30.93 3.46 30.92C1.8 30.92 0.42 29.8 0.07 28.2C-0.38 26.1 1.23 24.08 3.37 24.07C6.24 24.06 9.11 24.07 11.98 24.07ZM6 26.64C5.18 26.64 4.36 26.64 3.54 26.64C2.95 26.64 2.56 26.98 2.57 27.5C2.57 28 2.96 28.35 3.53 28.35C5.17 28.35 6.81 28.35 8.44 28.35C9.01 28.35 9.4 28 9.41 27.5C9.41 26.99 9.02 26.64 8.43 26.64C7.62 26.64 6.81 26.64 6 26.64Z" fill="#3987FD" fill-opacity="1.000000" fill-rule="nonzero"/>
		<path id="Vector" d="M6 26.64C6.81 26.64 7.62 26.64 8.43 26.64C9.02 26.64 9.41 26.99 9.41 27.5C9.4 28 9.01 28.35 8.44 28.35C6.81 28.35 5.17 28.35 3.53 28.35C2.96 28.35 2.57 28 2.57 27.5C2.56 26.98 2.95 26.64 3.54 26.64C4.36 26.64 5.18 26.64 6 26.64Z" fill="#FFFFFF" fill-opacity="1.000000" fill-rule="nonzero"/>
	</g>
</svg>
