<svg width="36.000000" height="36.000000" viewBox="0 0 36 36" fill="none" xmlns="http://www.w3.org/2000/svg" xmlns:xlink="http://www.w3.org/1999/xlink">
	<desc>
			Created with Pixso.
	</desc>
	<defs/>
	<rect id="Iconly/Regular/Bold/Edit" rx="7.500000" width="35.000000" height="35.000000" transform="translate(0.500000 0.500000)" fill="#FFFFFF" fill-opacity="0"/>
	<path id="Edit" d="M15.6912 25.0647L23.4233 15.0657C23.8435 14.5265 23.9929 13.9031 23.8528 13.2683C23.7314 12.6913 23.3766 12.1426 22.8443 11.7263L21.5463 10.6953C20.4164 9.79663 19.0156 9.89111 18.2126 10.9222L17.3441 12.049C17.232 12.1899 17.26 12.3981 17.4001 12.5115C17.4001 12.5115 19.5946 14.271 19.6413 14.3088C19.7907 14.4508 19.9028 14.64 19.9308 14.8671C19.9775 15.3116 19.6693 15.7279 19.2117 15.7847C18.9969 15.813 18.7915 15.7468 18.6421 15.6238L16.3356 13.7886C16.2235 13.7045 16.0554 13.7224 15.962 13.8359L10.4805 20.9308C10.1257 21.3754 10.0043 21.9524 10.1257 22.5105L10.826 25.5471C10.8634 25.7079 11.0034 25.8214 11.1715 25.8214L14.2531 25.7836C14.8134 25.7742 15.3364 25.5188 15.6912 25.0647ZM20.0061 24.1189L25.031 24.1189C25.5213 24.1189 25.92 24.5228 25.92 25.0195C25.92 25.5171 25.5213 25.92 25.031 25.92L20.0061 25.92C19.5159 25.92 19.1171 25.5171 19.1171 25.0195C19.1171 24.5228 19.5159 24.1189 20.0061 24.1189Z" clip-rule="evenodd" fill="#8F959E" fill-opacity="1.000000" fill-rule="evenodd"/>
	<rect id="Iconly/Regular/Bold/Edit" rx="7.500000" width="35.000000" height="35.000000" transform="translate(0.500000 0.500000)" stroke="#D1D1D1" stroke-opacity="0" stroke-width="1.000000"/>
</svg>
