<svg width="133.000000" height="29.000000" viewBox="0 0 133 29" fill="none" xmlns="http://www.w3.org/2000/svg" xmlns:xlink="http://www.w3.org/1999/xlink">
	<desc>
			Created with Pixso.
	</desc>
	<defs>
		<clipPath id="clip2_2004">
			<rect id="logo olimpus" width="41.000000" height="29.000000" fill="white" fill-opacity="0"/>
		</clipPath>
		<clipPath id="clip2_2006">
			<rect id="logo" width="133.000000" height="29.000000" fill="white" fill-opacity="0"/>
		</clipPath>
	</defs>
	<g clip-path="url(#clip2_2006)">
		<rect id="logo olimpus" width="41.000000" height="29.000000" fill="#FFFFFF" fill-opacity="0"/>
		<g clip-path="url(#clip2_2004)">
			<path id="Vector" d="M0 8.19C1.69 7.21 3.22 6.33 4.75 5.45C6.91 4.2 9.08 2.97 11.23 1.69C11.71 1.41 11.95 1.47 12.2 1.97C12.61 2.76 13.07 3.52 13.55 4.35C11.31 5.64 9.16 6.89 6.88 8.21C9.14 9.52 11.3 10.78 13.55 12.08C13.02 13.01 12.53 13.89 11.99 14.74C11.93 14.84 11.53 14.86 11.36 14.78C10.73 14.46 10.13 14.08 9.52 13.74C9.3 13.61 9.08 13.5 8.86 13.39C8.86 14.84 8.84 16.21 8.88 17.59C8.88 17.76 9.13 17.98 9.31 18.09C12.96 20.35 16.6 22.6 20.27 24.83C20.47 24.95 20.87 24.93 21.08 24.81C24.67 22.66 28.25 20.47 31.84 18.31C32.26 18.06 32.41 17.77 32.4 17.29C32.37 16.02 32.39 14.76 32.39 13.3C31.42 13.85 30.65 14.26 29.92 14.72C29.48 15 29.2 15.01 28.93 14.47C28.54 13.68 28.06 12.92 27.57 12.08C29.81 10.78 31.97 9.53 34.23 8.22C33.38 7.72 32.64 7.28 31.89 6.84C30.62 6.11 29.36 5.37 28.09 4.66C27.69 4.44 27.61 4.23 27.86 3.83C28.27 3.17 28.65 2.49 29.02 1.81C29.19 1.51 29.36 1.4 29.69 1.59C33.4 3.74 37.11 5.88 40.82 8.03C40.87 8.06 40.9 8.14 41 8.26C40.77 8.41 40.57 8.55 40.36 8.68C39.04 9.44 37.72 10.23 36.38 10.96C35.9 11.22 35.74 11.54 35.75 12.08C35.78 14.49 35.75 16.89 35.77 19.29C35.78 19.78 35.63 20.06 35.21 20.31C30.53 23.13 25.86 25.97 21.19 28.81C20.8 29.05 20.5 29.06 20.1 28.81C15.37 25.89 10.64 22.97 5.9 20.07C5.47 19.81 5.36 19.5 5.36 19.03C5.38 16.68 5.36 14.32 5.38 11.96C5.38 11.5 5.23 11.24 4.83 11.01C3.47 10.26 2.13 9.47 0.78 8.69C0.57 8.56 0.36 8.42 0 8.19Z" fill="#3987FD" fill-opacity="1.000000" fill-rule="nonzero"/>
			<path id="Vector" d="M19.73 16.12C18.7 15.81 17.81 15.57 16.95 15.25C16.84 15.21 16.77 14.77 16.83 14.56C17.58 11.94 18.37 9.33 19.14 6.72C19.74 4.72 20.38 2.72 20.93 0.71C21.12 -0.01 21.42 -0.14 22.07 0.11C22.68 0.35 23.32 0.5 23.95 0.69C24.33 0.8 24.49 0.96 24.35 1.4C22.92 6.14 21.5 10.89 20.07 15.64C20.01 15.83 19.83 15.98 19.73 16.12Z" fill="#3987FD" fill-opacity="1.000000" fill-rule="nonzero"/>
		</g>
		<path id="Olimpus" d="M77.82 7.63C77.72 8.47 76.91 9.17 76.01 9.17C75.11 9.17 74.44 8.47 74.55 7.63C74.65 6.79 75.46 6.1 76.36 6.1C77.26 6.1 77.91 6.79 77.82 7.63ZM60.19 6.75C64.13 6.75 66.69 9.58 65.9 14.42C65.11 19.09 61.83 21.7 58.06 21.7C54.09 21.7 51.53 18.89 52.33 14.06C53.1 9.39 56.4 6.75 60.19 6.75ZM69.35 6.95L72.37 6.95L69.96 21.5L66.93 21.5L69.35 6.95ZM58.17 18.98C60.49 18.98 62.32 17.21 62.84 14.06C63.32 11.07 62.22 9.47 60.07 9.47C57.73 9.47 55.9 11.27 55.38 14.42C54.87 17.43 56.04 18.98 58.17 18.98ZM80.85 21.5L77.83 21.5L79.65 10.59L82.53 10.59L82.22 12.51L82.34 12.51C83 11.23 84.25 10.45 85.73 10.45C87.21 10.45 88.2 11.25 88.35 12.51L88.46 12.51C89.11 11.26 90.48 10.45 92.09 10.45C94.11 10.45 95.31 11.79 94.91 14.16L93.69 21.5L90.66 21.5L91.8 14.76C91.98 13.54 91.36 12.94 90.4 12.94C89.3 12.94 88.53 13.7 88.35 14.83L87.22 21.5L84.29 21.5L85.44 14.69C85.61 13.62 85.05 12.94 84.05 12.94C83.05 12.94 82.14 13.74 81.96 14.95L80.85 21.5ZM98.42 25.59L95.39 25.59L97.91 10.59L100.89 10.59L100.58 12.42L100.72 12.42C101.25 11.53 102.32 10.45 104.15 10.45C106.54 10.45 108.25 12.31 107.63 16.06C107.02 19.7 104.75 21.67 102.27 21.67C100.5 21.67 99.76 20.66 99.5 19.75L99.39 19.75L98.42 25.59ZM127.3 10.45C130.13 10.45 131.6 11.69 131.53 13.7L128.78 13.87C128.74 13.15 128.25 12.59 127.25 12.59C126.25 12.59 125.37 13.09 125.26 13.8C125.18 14.26 125.44 14.56 126.41 14.78L128.33 15.17C130.38 15.61 131.3 16.61 131.04 18.25C130.68 20.34 128.49 21.71 125.73 21.71C122.76 21.71 121.18 20.4 121.23 18.34L124.18 18.18C124.23 19.07 124.83 19.52 125.84 19.53C126.96 19.55 127.84 19 127.95 18.29C128.02 17.79 127.7 17.51 126.77 17.31L124.95 16.93C122.88 16.51 121.98 15.4 122.27 13.7C122.61 11.66 124.59 10.45 127.3 10.45ZM75.4 21.5L72.37 21.5L74.19 10.59L77.22 10.59L75.4 21.5ZM114.06 19.08C115.15 19.08 116.26 18.31 116.5 16.85L117.54 10.59L120.57 10.59L118.75 21.5L115.85 21.5L116.17 19.51L116.06 19.51C115.38 20.79 114.04 21.64 112.4 21.64C110.2 21.64 108.97 20.08 109.38 17.53L110.55 10.59L113.57 10.59L112.51 16.99C112.3 18.28 112.9 19.08 114.06 19.08ZM102.77 12.85C101.3 12.85 100.27 14.09 99.96 16.04C99.64 17.98 100.26 19.26 101.72 19.26C103.2 19.26 104.21 17.95 104.54 16.04C104.84 14.15 104.27 12.85 102.77 12.85Z" fill="#242424" fill-opacity="1.000000" fill-rule="evenodd"/>
	</g>
</svg>
